<svg xmlns="http://www.w3.org/2000/svg" width="1024" height="1024" viewBox="0 0 1024 1024">
  <rect width="100%" height="100%" fill="white"/>
  <circle cx="512" cy="512" r="472" fill="none" stroke="black" stroke-width="72"/>
  <path d="M 512.00,754.40 L 530.05,810.52 L 585.18,789.64 L 552.56,838.74 L 603.25,868.83 L 544.52,873.94 L 552.61,932.33 L 512.00,889.60 L 471.39,932.33 L 479.48,873.94 L 420.75,868.83 L 471.44,838.74 L 438.82,789.64 L 493.95,810.52 Z" fill="black"/>
  <path d="M 260.00,355.40 L 278.05,411.52 L 333.18,390.64 L 300.56,439.74 L 351.25,469.83 L 292.52,474.94 L 300.61,533.33 L 260.00,490.60 L 219.39,533.33 L 227.48,474.94 L 168.75,469.83 L 219.44,439.74 L 186.82,390.64 L 241.95,411.52 Z" fill="black"/>
  <path d="M 512.00,82.40 L 530.05,138.52 L 585.18,117.64 L 552.56,166.74 L 603.25,196.83 L 544.52,201.94 L 552.61,260.33 L 512.00,217.60 L 471.39,260.33 L 479.48,201.94 L 420.75,196.83 L 471.44,166.74 L 438.82,117.64 L 493.95,138.52 Z" fill="black"/>
  <path d="M 736.00,288.20 L 754.05,344.32 L 809.18,323.44 L 776.56,372.54 L 827.25,402.63 L 768.52,407.74 L 776.61,466.13 L 736.00,423.40 L 695.39,466.13 L 703.48,407.74 L 644.75,402.63 L 695.44,372.54 L 662.82,323.44 L 717.95,344.32 Z" fill="black"/>
  <path d="M 612.80,499.40 L 627.06,534.37 L 664.73,537.13 L 635.88,561.50 L 644.89,598.17 L 612.80,578.27 L 580.71,598.17 L 589.72,561.50 L 560.87,537.13 L 598.54,534.37 Z" fill="black"/>
</svg>